<svg width="81" height="50" viewBox="0 0 81 50" fill="none" xmlns="http://www.w3.org/2000/svg">
<path d="M9.834 46.654L9.55511 47.0691L9.56264 47.074L9.834 46.654ZM2.865 38.098L2.4102 38.3057L2.4102 38.3057L2.865 38.098ZM2.865 11.602L2.4102 11.3942L2.4102 11.3942L2.865 11.602ZM9.834 3.115L10.1083 3.53303L10.1099 3.53201L9.834 3.115ZM30.12 3.115L29.8411 3.53009L29.8486 3.53496L30.12 3.115ZM37.158 11.602L37.6128 11.3942L37.6128 11.3942L37.158 11.602ZM30.12 46.654L30.3943 47.072L30.3959 47.071L30.12 46.654ZM29.292 38.65L28.8899 38.3528L28.8871 38.3566L29.292 38.65ZM29.292 11.05L28.8871 11.3434L28.8899 11.3472L29.292 11.05ZM10.662 11.05L10.2599 10.7528L10.2571 10.7566L10.662 11.05ZM10.662 38.65L10.2571 38.9434L10.2599 38.9472L10.662 38.65ZM20.046 49.052C16.317 49.052 13.0086 48.11 10.1054 46.234L9.56264 47.074C12.6394 49.062 16.139 50.052 20.046 50.052V49.052ZM10.1128 46.239C7.25678 44.3201 4.98948 41.5455 3.3198 37.8903L2.4102 38.3057C4.14453 42.1025 6.52323 45.0319 9.55516 47.069L10.1128 46.239ZM3.3198 37.8903C1.65398 34.2435 0.812 29.9015 0.812 24.85H-0.188C-0.188 30.0105 0.672021 34.5005 2.4102 38.3057L3.3198 37.8903ZM0.812 24.85C0.812 19.7985 1.65398 15.4565 3.3198 11.8097L2.4102 11.3942C0.672021 15.1995 -0.188 19.6895 -0.188 24.85H0.812ZM3.3198 11.8097C4.98916 8.15519 7.25524 5.40536 10.1083 3.53302L9.55967 2.69697C6.52476 4.68864 4.14484 7.59681 2.4102 11.3942L3.3198 11.8097ZM10.1099 3.53201C13.0126 1.61172 16.3194 0.648 20.046 0.648V-0.352C16.1366 -0.352 12.6354 0.662282 9.55813 2.69799L10.1099 3.53201ZM20.046 0.648C23.7253 0.648 26.9849 1.61101 29.8412 3.53002L30.3988 2.69997C27.3671 0.662993 23.9107 -0.352 20.046 -0.352V0.648ZM29.8486 3.53496C32.747 5.40773 35.0347 8.15715 36.7032 11.8097L37.6128 11.3942C35.8773 7.59485 33.473 4.68627 30.3914 2.69504L29.8486 3.53496ZM36.7032 11.8097C38.369 15.4565 39.211 19.7985 39.211 24.85H40.211C40.211 19.6895 39.351 15.1995 37.6128 11.3942L36.7032 11.8097ZM39.211 24.85C39.211 29.9015 38.369 34.2435 36.7032 37.8903L37.6128 38.3057C39.351 34.5005 40.211 30.0105 40.211 24.85H39.211ZM36.7032 37.8903C35.0344 41.5435 32.7454 44.3177 29.8441 46.237L30.3959 47.071C33.4746 45.0343 35.8776 42.1044 37.6128 38.3057L36.7032 37.8903ZM29.8457 46.236C26.989 48.1106 23.7278 49.052 20.046 49.052V50.052C23.9082 50.052 27.363 49.0614 30.3943 47.072L29.8457 46.236ZM20.046 43.911C24.073 43.911 27.3044 42.2449 29.6969 38.9434L28.8871 38.3566C26.6796 41.4031 23.747 42.911 20.046 42.911V43.911ZM29.6941 38.9472C32.1293 35.6525 33.311 30.9299 33.311 24.85H32.311C32.311 30.8221 31.1467 35.2995 28.8899 38.3528L29.6941 38.9472ZM33.311 24.85C33.311 18.7701 32.1293 14.0475 29.6941 10.7528L28.8899 11.3472C31.1467 14.4005 32.311 18.8779 32.311 24.85H33.311ZM29.6969 10.7566C27.3044 7.45505 24.073 5.789 20.046 5.789V6.789C23.747 6.789 26.6796 8.29694 28.8871 11.3434L29.6969 10.7566ZM20.046 5.789C15.9756 5.789 12.6991 7.45268 10.2599 10.7528L11.0641 11.3472C13.3169 8.29932 16.2964 6.789 20.046 6.789V5.789ZM10.2571 10.7566C7.8701 14.0507 6.712 18.7717 6.712 24.85H7.712C7.712 18.8763 8.8539 14.3973 11.0669 11.3434L10.2571 10.7566ZM6.712 24.85C6.712 30.9283 7.8701 35.6493 10.2571 38.9434L11.0669 38.3566C8.8539 35.3027 7.712 30.8237 7.712 24.85H6.712ZM10.2599 38.9472C12.6991 42.2473 15.9756 43.911 20.046 43.911V42.911C16.2964 42.911 13.3169 41.4007 11.0641 38.3528L10.2599 38.9472ZM80.0803 42.997H80.5803V42.497H80.0803V42.997ZM80.0803 49V49.5H80.5803V49H80.0803ZM45.3733 49H44.8733V49.5H45.3733V49ZM45.3733 44.308L45.0261 43.9482L44.8733 44.0956V44.308H45.3733ZM65.0383 25.333L64.6918 24.9726L64.6911 24.9732L65.0383 25.333ZM69.8683 19.399L70.3156 19.6226L70.3179 19.6177L69.8683 19.399ZM68.4193 8.428L68.1033 8.81543L68.1088 8.81995L68.1145 8.82431L68.4193 8.428ZM48.4783 11.533L48.1506 11.9107L48.5369 12.2458L48.8633 11.8521L48.4783 11.533ZM43.7863 7.462L43.3997 7.14496L43.0913 7.52098L43.4586 7.83966L43.7863 7.462ZM51.1693 2.08L50.9765 1.61866L50.974 1.61971L51.1693 2.08ZM73.5253 3.805L73.2093 4.19252L73.213 4.19543L73.5253 3.805ZM76.3543 20.917L76.8051 21.1334L76.8051 21.1334L76.3543 20.917ZM70.0753 28.783L69.7299 28.4214L69.7286 28.4228L70.0753 28.783ZM55.3093 42.997L54.9626 42.6368L54.0689 43.497H55.3093V42.997ZM79.5803 42.997V49H80.5803V42.997H79.5803ZM80.0803 48.5H45.3733V49.5H80.0803V48.5ZM45.8733 49V44.308H44.8733V49H45.8733ZM45.7205 44.6678L65.3855 25.6928L64.6911 24.9732L45.0261 43.9482L45.7205 44.6678ZM65.3849 25.6934C67.7908 23.38 69.4493 21.355 70.3155 19.6226L69.4211 19.1754C68.6313 20.755 67.0698 22.686 64.6918 24.9726L65.3849 25.6934ZM70.3179 19.6177C71.1753 17.8553 71.6103 16.0789 71.6103 14.293H70.6103C70.6103 15.9111 70.2173 17.5387 69.4187 19.1803L70.3179 19.6177ZM71.6103 14.293C71.6103 11.6287 70.6569 9.51839 68.7242 8.03169L68.1145 8.82431C69.7697 10.0976 70.6103 11.8973 70.6103 14.293H71.6103ZM68.7354 8.04057C66.8647 6.51447 64.2043 5.789 60.8293 5.789V6.789C64.0784 6.789 66.478 7.48953 68.1033 8.81543L68.7354 8.04057ZM60.8293 5.789C55.3734 5.789 51.1034 7.58274 48.0934 11.2139L48.8633 11.8521C51.6492 8.49126 55.6132 6.789 60.8293 6.789V5.789ZM48.806 11.1553L44.114 7.08433L43.4586 7.83966L48.1506 11.9107L48.806 11.1553ZM44.1729 7.77904C46.0023 5.54812 48.3948 3.80021 51.3646 2.54029L50.974 1.61971C47.8718 2.93579 45.3423 4.77587 43.3997 7.14496L44.1729 7.77904ZM51.3621 2.54133C54.3756 1.28195 57.736 0.648 61.4503 0.648V-0.352C57.6206 -0.352 54.127 0.302048 50.9765 1.61867L51.3621 2.54133ZM61.4503 0.648C66.4314 0.648 70.3331 1.84726 73.2093 4.19251L73.8413 3.41749C70.7375 0.886742 66.5892 -0.352 61.4503 -0.352V0.648ZM73.213 4.19543C76.0737 6.48405 77.5103 9.60075 77.5103 13.603H78.5103C78.5103 9.32524 76.9569 5.90994 73.8377 3.41456L73.213 4.19543ZM77.5103 13.603C77.5103 16.1049 76.9748 18.4688 75.9036 20.7006L76.8051 21.1334C77.9418 18.7652 78.5103 16.2531 78.5103 13.603H77.5103ZM75.9036 20.7006C74.8374 22.9218 72.7936 25.495 69.7299 28.4214L70.4207 29.1446C73.521 26.183 75.6633 23.5122 76.8051 21.1334L75.9036 20.7006ZM69.7286 28.4228L54.9626 42.6368L55.6561 43.3572L70.4221 29.1432L69.7286 28.4228ZM55.3093 43.497H80.0803V42.497H55.3093V43.497Z" fill="white"/>
</svg>
