<svg width="79" height="50" viewBox="0 0 79 50" fill="none" xmlns="http://www.w3.org/2000/svg">
<path d="M9.834 46.656L9.55511 47.071L9.56264 47.0759L9.834 46.656ZM2.865 38.1L2.4102 38.3077L2.865 38.1ZM2.865 11.6039L2.4102 11.3962L2.865 11.6039ZM9.834 3.11695L10.1083 3.53498L10.1099 3.53396L9.834 3.11695ZM30.12 3.11695L29.8411 3.53204L29.8486 3.53691L30.12 3.11695ZM37.158 11.6039L37.6128 11.3962L37.158 11.6039ZM30.12 46.656L30.3943 47.074L30.3959 47.073L30.12 46.656ZM29.292 38.652L28.8899 38.3547L28.8871 38.3586L29.292 38.652ZM29.292 11.052L28.8871 11.3454L28.8899 11.3491L29.292 11.052ZM10.662 11.052L10.2599 10.7547L10.2571 10.7586L10.662 11.052ZM10.662 38.652L10.2571 38.9454L10.2599 38.9492L10.662 38.652ZM20.046 49.054C16.317 49.054 13.0086 48.1119 10.1054 46.236L9.56264 47.0759C12.6394 49.064 16.139 50.054 20.046 50.054V49.054ZM10.1128 46.2409C7.25678 44.322 4.98948 41.5474 3.3198 37.8922L2.4102 38.3077C4.14453 42.1045 6.52323 45.0339 9.55516 47.071L10.1128 46.2409ZM3.3198 37.8922C1.65398 34.2454 0.812 29.9034 0.812 24.852H-0.188C-0.188 30.0125 0.672021 34.5025 2.4102 38.3077L3.3198 37.8922ZM0.812 24.852C0.812 19.8005 1.65398 15.4585 3.3198 11.8117L2.4102 11.3962C0.672021 15.2014 -0.188 19.6914 -0.188 24.852H0.812ZM3.3198 11.8117C4.98916 8.15714 7.25524 5.40731 10.1083 3.53498L9.55967 2.69893C6.52476 4.69059 4.14484 7.59876 2.4102 11.3962L3.3198 11.8117ZM10.1099 3.53396C13.0126 1.61367 16.3194 0.649952 20.046 0.649952V-0.350048C16.1366 -0.350048 12.6354 0.664236 9.55813 2.69994L10.1099 3.53396ZM20.046 0.649952C23.7253 0.649952 26.9849 1.61296 29.8412 3.53198L30.3988 2.70193C27.3671 0.664946 23.9107 -0.350048 20.046 -0.350048V0.649952ZM29.8486 3.53691C32.747 5.40968 35.0347 8.1591 36.7032 11.8117L37.6128 11.3962C35.8773 7.5968 33.473 4.68822 30.3914 2.69699L29.8486 3.53691ZM36.7032 11.8117C38.369 15.4585 39.211 19.8005 39.211 24.852H40.211C40.211 19.6914 39.351 15.2014 37.6128 11.3962L36.7032 11.8117ZM39.211 24.852C39.211 29.9034 38.369 34.2454 36.7032 37.8922L37.6128 38.3077C39.351 34.5025 40.211 30.0125 40.211 24.852H39.211ZM36.7032 37.8922C35.0344 41.5455 32.7454 44.3196 29.8441 46.2389L30.3959 47.073C33.4746 45.0363 35.8776 42.1064 37.6128 38.3077L36.7032 37.8922ZM29.8457 46.2379C26.989 48.1126 23.7278 49.054 20.046 49.054V50.054C23.9082 50.054 27.363 49.0633 30.3943 47.074L29.8457 46.2379ZM20.046 43.913C24.073 43.913 27.3044 42.2469 29.6969 38.9453L28.8871 38.3586C26.6796 41.405 23.747 42.913 20.046 42.913V43.913ZM29.6941 38.9492C32.1293 35.6545 33.311 30.9318 33.311 24.852H32.311C32.311 30.8241 31.1467 35.3014 28.8899 38.3548L29.6941 38.9492ZM33.311 24.852C33.311 18.7721 32.1293 14.0494 29.6941 10.7548L28.8899 11.3491C31.1467 14.4025 32.311 18.8798 32.311 24.852H33.311ZM29.6969 10.7586C27.3044 7.45701 24.073 5.79095 20.046 5.79095V6.79095C23.747 6.79095 26.6796 8.2989 28.8871 11.3453L29.6969 10.7586ZM20.046 5.79095C15.9756 5.79095 12.6991 7.45463 10.2599 10.7548L11.0641 11.3491C13.3169 8.30127 16.2964 6.79095 20.046 6.79095V5.79095ZM10.2571 10.7586C7.8701 14.0527 6.712 18.7737 6.712 24.852H7.712C7.712 18.8782 8.8539 14.3992 11.0669 11.3453L10.2571 10.7586ZM6.712 24.852C6.712 30.9302 7.8701 35.6512 10.2571 38.9453L11.0669 38.3586C8.8539 35.3047 7.712 30.8257 7.712 24.852H6.712ZM10.2599 38.9492C12.6991 42.2493 15.9756 43.913 20.046 43.913V42.913C16.2964 42.913 13.3169 41.4026 11.0641 38.3548L10.2599 38.9492ZM64.1526 20.988L63.7641 20.6733L63.179 21.3958L64.1043 21.4856L64.1526 20.988ZM74.9856 25.404L74.6321 25.7575L74.6354 25.7608L74.9856 25.404ZM76.6416 42.309L77.0657 42.574L77.0681 42.57L76.6416 42.309ZM70.4316 47.622L70.646 48.0737L70.6492 48.0721L70.4316 47.622ZM50.4906 48.0359L50.3325 48.5103L50.3387 48.5123L50.4906 48.0359ZM42.6936 43.689L42.2615 43.4374L42.058 43.7869L42.3573 44.0589L42.6936 43.689ZM45.8676 38.238L46.2109 37.8744L45.7527 37.4417L45.4355 37.9864L45.8676 38.238ZM52.2156 42.033L52.0401 42.5012L52.0475 42.5038L52.2156 42.033ZM68.7756 41.136L68.4756 40.7359L68.4712 40.7393L68.7756 41.136ZM68.8446 28.647L68.5461 29.0481L68.8446 28.647ZM56.0106 26.439H55.5106V26.939H56.0106V26.439ZM56.0106 21.609L55.623 21.2931L55.5106 21.431V21.609H56.0106ZM68.1546 6.70495L68.5423 7.02079L69.207 6.20495H68.1546V6.70495ZM44.9016 6.70495H44.4016V7.20495H44.9016V6.70495ZM44.9016 0.70195V0.20195H44.4016V0.70195H44.9016ZM76.7796 0.70195H77.2796V0.20195H76.7796V0.70195ZM76.7796 5.39395L77.1682 5.7086L77.2796 5.571V5.39395H76.7796ZM64.1043 21.4856C68.7679 21.9384 72.255 23.3805 74.6321 25.7575L75.3392 25.0504C72.7482 22.4594 69.0134 20.9575 64.201 20.4903L64.1043 21.4856ZM74.6354 25.7608C77.0138 28.0952 78.2116 31.0898 78.2116 34.788H79.2116C79.2116 30.8501 77.9254 27.5887 75.3359 25.0471L74.6354 25.7608ZM78.2116 34.788C78.2116 37.4601 77.5449 39.876 76.2152 42.0479L77.0681 42.57C78.4984 40.2339 79.2116 37.6358 79.2116 34.788H78.2116ZM76.2176 42.044C74.8959 44.1587 72.9044 45.8714 70.2141 47.1718L70.6492 48.0721C73.4788 46.7045 75.6274 44.8752 77.0656 42.574L76.2176 42.044ZM70.2173 47.1702C67.588 48.418 64.331 49.054 60.4266 49.054V50.054C64.4343 50.054 67.8473 49.4019 70.646 48.0737L70.2173 47.1702ZM60.4266 49.054C57.0263 49.054 53.7657 48.5554 50.6425 47.5596L50.3387 48.5123C53.5636 49.5405 56.9269 50.054 60.4266 50.054V49.054ZM50.6487 47.5616C47.5264 46.5208 44.9923 45.1029 43.03 43.319L42.3573 44.0589C44.4429 45.955 47.1069 47.4351 50.3325 48.5103L50.6487 47.5616ZM43.1257 43.9405L46.2997 38.4895L45.4355 37.9864L42.2615 43.4374L43.1257 43.9405ZM45.5243 38.6015C47.2377 40.2196 49.4144 41.5165 52.0401 42.5011L52.3912 41.5648C49.8649 40.6174 47.8096 39.3843 46.2109 37.8744L45.5243 38.6015ZM52.0475 42.5038C54.6806 43.4442 57.4748 43.913 60.4266 43.913V42.913C57.5825 42.913 54.9027 42.4617 52.3838 41.5621L52.0475 42.5038ZM60.4266 43.913C64.0779 43.913 66.9837 43.1414 69.08 41.5326L68.4712 40.7393C66.6116 42.1665 63.9514 42.913 60.4266 42.913V43.913ZM69.0756 41.536C71.2333 39.9177 72.3116 37.6723 72.3116 34.857H71.3116C71.3116 37.3776 70.3659 39.3182 68.4756 40.736L69.0756 41.536ZM72.3116 34.857C72.3116 32.046 71.2595 29.8208 69.1431 28.2458L68.5461 29.0481C70.3857 30.4171 71.3116 32.3319 71.3116 34.857H72.3116ZM69.1431 28.2458C67.0399 26.6806 63.9226 25.939 59.8746 25.939V26.939C63.8307 26.939 66.6934 27.6693 68.5461 29.0481L69.1431 28.2458ZM59.8746 25.939H56.0106V26.939H59.8746V25.939ZM56.5106 26.439V21.609H55.5106V26.439H56.5106ZM56.3983 21.9248L68.5423 7.02079L67.767 6.38911L55.623 21.2931L56.3983 21.9248ZM68.1546 6.20495H44.9016V7.20495H68.1546V6.20495ZM45.4016 6.70495V0.70195H44.4016V6.70495H45.4016ZM44.9016 1.20195H76.7796V0.20195H44.9016V1.20195ZM76.2796 0.70195V5.39395H77.2796V0.70195H76.2796ZM76.3911 5.0793L63.7641 20.6733L64.5412 21.3026L77.1682 5.7086L76.3911 5.0793Z" fill="white"/>
</svg>
