<svg width="89" height="50" viewBox="0 0 89 50" fill="none" xmlns="http://www.w3.org/2000/svg">
<path d="M9.834 46.654L9.55511 47.0691L9.56264 47.074L9.834 46.654ZM2.865 38.098L2.4102 38.3057L2.865 38.098ZM2.865 11.602L2.4102 11.3942L2.865 11.602ZM9.834 3.115L10.1083 3.53303L10.1099 3.53201L9.834 3.115ZM30.12 3.115L29.8411 3.53009L29.8486 3.53496L30.12 3.115ZM37.158 11.602L37.6128 11.3942L37.158 11.602ZM30.12 46.654L30.3943 47.072L30.3959 47.071L30.12 46.654ZM29.292 38.65L28.8899 38.3528L28.8871 38.3566L29.292 38.65ZM29.292 11.05L28.8871 11.3434L28.8899 11.3472L29.292 11.05ZM10.662 11.05L10.2599 10.7528L10.2571 10.7566L10.662 11.05ZM10.662 38.65L10.2571 38.9434L10.2599 38.9472L10.662 38.65ZM20.046 49.052C16.317 49.052 13.0086 48.11 10.1054 46.234L9.56264 47.074C12.6394 49.062 16.139 50.052 20.046 50.052V49.052ZM10.1128 46.239C7.25678 44.3201 4.98948 41.5455 3.3198 37.8903L2.4102 38.3057C4.14453 42.1025 6.52323 45.0319 9.55516 47.069L10.1128 46.239ZM3.3198 37.8903C1.65398 34.2435 0.812 29.9015 0.812 24.85H-0.188C-0.188 30.0105 0.672021 34.5005 2.4102 38.3057L3.3198 37.8903ZM0.812 24.85C0.812 19.7985 1.65398 15.4565 3.3198 11.8097L2.4102 11.3942C0.672021 15.1995 -0.188 19.6895 -0.188 24.85H0.812ZM3.3198 11.8097C4.98916 8.15519 7.25524 5.40536 10.1083 3.53302L9.55967 2.69697C6.52476 4.68864 4.14484 7.59681 2.4102 11.3942L3.3198 11.8097ZM10.1099 3.53201C13.0126 1.61172 16.3194 0.647999 20.046 0.647999V-0.352001C16.1366 -0.352001 12.6354 0.662283 9.55813 2.69799L10.1099 3.53201ZM20.046 0.647999C23.7253 0.647999 26.9849 1.61101 29.8412 3.53002L30.3988 2.69997C27.3671 0.662992 23.9107 -0.352001 20.046 -0.352001V0.647999ZM29.8486 3.53496C32.747 5.40773 35.0347 8.15715 36.7032 11.8097L37.6128 11.3942C35.8773 7.59484 33.473 4.68627 30.3914 2.69504L29.8486 3.53496ZM36.7032 11.8097C38.369 15.4565 39.211 19.7985 39.211 24.85H40.211C40.211 19.6895 39.351 15.1995 37.6128 11.3942L36.7032 11.8097ZM39.211 24.85C39.211 29.9015 38.369 34.2435 36.7032 37.8903L37.6128 38.3057C39.351 34.5005 40.211 30.0105 40.211 24.85H39.211ZM36.7032 37.8903C35.0344 41.5435 32.7454 44.3177 29.8441 46.237L30.3959 47.071C33.4746 45.0343 35.8776 42.1045 37.6128 38.3057L36.7032 37.8903ZM29.8457 46.236C26.989 48.1106 23.7278 49.052 20.046 49.052V50.052C23.9082 50.052 27.363 49.0614 30.3943 47.072L29.8457 46.236ZM20.046 43.911C24.073 43.911 27.3044 42.2449 29.6969 38.9434L28.8871 38.3566C26.6796 41.4031 23.747 42.911 20.046 42.911V43.911ZM29.6941 38.9472C32.1293 35.6525 33.311 30.9299 33.311 24.85H32.311C32.311 30.8221 31.1467 35.2995 28.8899 38.3528L29.6941 38.9472ZM33.311 24.85C33.311 18.7701 32.1293 14.0475 29.6941 10.7528L28.8899 11.3472C31.1467 14.4005 32.311 18.8779 32.311 24.85H33.311ZM29.6969 10.7566C27.3044 7.45505 24.073 5.789 20.046 5.789V6.789C23.747 6.789 26.6796 8.29695 28.8871 11.3434L29.6969 10.7566ZM20.046 5.789C15.9756 5.789 12.6991 7.45268 10.2599 10.7528L11.0641 11.3472C13.3169 8.29932 16.2964 6.789 20.046 6.789V5.789ZM10.2571 10.7566C7.8701 14.0507 6.712 18.7717 6.712 24.85H7.712C7.712 18.8763 8.8539 14.3973 11.0669 11.3434L10.2571 10.7566ZM6.712 24.85C6.712 30.9283 7.8701 35.6493 10.2571 38.9434L11.0669 38.3566C8.8539 35.3027 7.712 30.8237 7.712 24.85H6.712ZM10.2599 38.9472C12.6991 42.2473 15.9756 43.911 20.046 43.911V42.911C16.2964 42.911 13.3169 41.4007 11.0641 38.3528L10.2599 38.9472ZM88.3555 37.132V37.632H88.8555V37.132H88.3555ZM79.1785 37.132V36.632H78.6785V37.132H79.1785ZM79.1785 49V49.5H79.6785V49H79.1785ZM72.4855 49H71.9855V49.5H72.4855V49ZM72.4855 37.132H72.9855V36.632H72.4855V37.132ZM45.6445 37.132H45.1445V37.632H45.6445V37.132ZM45.6445 32.302L45.2505 31.9941L45.1445 32.1298V32.302H45.6445ZM70.3465 0.699997V0.199997H70.1027L69.9525 0.392075L70.3465 0.699997ZM77.7985 0.699997L78.1935 1.00653L78.8194 0.199997H77.7985V0.699997ZM54.1315 31.198L53.7365 30.8915L53.1106 31.698H54.1315V31.198ZM72.6925 31.198V31.698H73.1925V31.198H72.6925ZM72.6925 20.71V20.21H72.1925V20.71H72.6925ZM79.1785 20.71H79.6785V20.21H79.1785V20.71ZM79.1785 31.198H78.6785V31.698H79.1785V31.198ZM88.3555 31.198H88.8555V30.698H88.3555V31.198ZM88.3555 36.632H79.1785V37.632H88.3555V36.632ZM78.6785 37.132V49H79.6785V37.132H78.6785ZM79.1785 48.5H72.4855V49.5H79.1785V48.5ZM72.9855 49V37.132H71.9855V49H72.9855ZM72.4855 36.632H45.6445V37.632H72.4855V36.632ZM46.1445 37.132V32.302H45.1445V37.132H46.1445ZM46.0384 32.6099L70.7404 1.00792L69.9525 0.392075L45.2505 31.9941L46.0384 32.6099ZM70.3465 1.2H77.7985V0.199997H70.3465V1.2ZM77.4035 0.393459L53.7365 30.8915L54.5265 31.5045L78.1935 1.00653L77.4035 0.393459ZM54.1315 31.698H72.6925V30.698H54.1315V31.698ZM73.1925 31.198V20.71H72.1925V31.198H73.1925ZM72.6925 21.21H79.1785V20.21H72.6925V21.21ZM78.6785 20.71V31.198H79.6785V20.71H78.6785ZM79.1785 31.698H88.3555V30.698H79.1785V31.698ZM87.8555 31.198V37.132H88.8555V31.198H87.8555Z" fill="black"/>
</svg>
