<svg width="81" height="50" viewBox="0 0 81 50" fill="none" xmlns="http://www.w3.org/2000/svg">
<path d="M9.834 46.654L9.55511 47.0691L9.56264 47.074L9.834 46.654ZM2.865 38.098L2.4102 38.3057L2.4102 38.3057L2.865 38.098ZM2.865 11.602L2.4102 11.3942L2.4102 11.3942L2.865 11.602ZM9.834 3.115L10.1083 3.53303L10.1099 3.53201L9.834 3.115ZM30.12 3.115L29.8411 3.53009L29.8486 3.53496L30.12 3.115ZM37.158 11.602L37.6128 11.3942L37.6128 11.3942L37.158 11.602ZM30.12 46.654L30.3943 47.072L30.3959 47.071L30.12 46.654ZM29.292 38.65L28.8899 38.3528L28.8871 38.3566L29.292 38.65ZM29.292 11.05L28.8871 11.3434L28.8899 11.3472L29.292 11.05ZM10.662 11.05L10.2599 10.7528L10.2571 10.7566L10.662 11.05ZM10.662 38.65L10.2571 38.9434L10.2599 38.9472L10.662 38.65ZM20.046 49.052C16.317 49.052 13.0086 48.11 10.1054 46.234L9.56264 47.074C12.6394 49.062 16.139 50.052 20.046 50.052V49.052ZM10.1128 46.239C7.25678 44.3201 4.98948 41.5455 3.3198 37.8903L2.4102 38.3057C4.14453 42.1025 6.52323 45.0319 9.55516 47.069L10.1128 46.239ZM3.3198 37.8903C1.65398 34.2435 0.812 29.9015 0.812 24.85H-0.188C-0.188 30.0105 0.672021 34.5005 2.4102 38.3057L3.3198 37.8903ZM0.812 24.85C0.812 19.7985 1.65398 15.4565 3.3198 11.8097L2.4102 11.3942C0.672021 15.1995 -0.188 19.6895 -0.188 24.85H0.812ZM3.3198 11.8097C4.98916 8.15519 7.25524 5.40536 10.1083 3.53302L9.55967 2.69697C6.52476 4.68864 4.14484 7.59681 2.4102 11.3942L3.3198 11.8097ZM10.1099 3.53201C13.0126 1.61172 16.3194 0.648 20.046 0.648V-0.352C16.1366 -0.352 12.6354 0.662282 9.55813 2.69799L10.1099 3.53201ZM20.046 0.648C23.7253 0.648 26.9849 1.61101 29.8412 3.53002L30.3988 2.69997C27.3671 0.662993 23.9107 -0.352 20.046 -0.352V0.648ZM29.8486 3.53496C32.747 5.40773 35.0347 8.15715 36.7032 11.8097L37.6128 11.3942C35.8773 7.59485 33.473 4.68627 30.3914 2.69504L29.8486 3.53496ZM36.7032 11.8097C38.369 15.4565 39.211 19.7985 39.211 24.85H40.211C40.211 19.6895 39.351 15.1995 37.6128 11.3942L36.7032 11.8097ZM39.211 24.85C39.211 29.9015 38.369 34.2435 36.7032 37.8903L37.6128 38.3057C39.351 34.5005 40.211 30.0105 40.211 24.85H39.211ZM36.7032 37.8903C35.0344 41.5435 32.7454 44.3177 29.8441 46.237L30.3959 47.071C33.4746 45.0343 35.8776 42.1044 37.6128 38.3057L36.7032 37.8903ZM29.8457 46.236C26.989 48.1106 23.7278 49.052 20.046 49.052V50.052C23.9082 50.052 27.363 49.0614 30.3943 47.072L29.8457 46.236ZM20.046 43.911C24.073 43.911 27.3044 42.2449 29.6969 38.9434L28.8871 38.3566C26.6796 41.4031 23.747 42.911 20.046 42.911V43.911ZM29.6941 38.9472C32.1293 35.6525 33.311 30.9299 33.311 24.85H32.311C32.311 30.8221 31.1467 35.2995 28.8899 38.3528L29.6941 38.9472ZM33.311 24.85C33.311 18.7701 32.1293 14.0475 29.6941 10.7528L28.8899 11.3472C31.1467 14.4005 32.311 18.8779 32.311 24.85H33.311ZM29.6969 10.7566C27.3044 7.45505 24.073 5.789 20.046 5.789V6.789C23.747 6.789 26.6796 8.29694 28.8871 11.3434L29.6969 10.7566ZM20.046 5.789C15.9756 5.789 12.6991 7.45268 10.2599 10.7528L11.0641 11.3472C13.3169 8.29932 16.2964 6.789 20.046 6.789V5.789ZM10.2571 10.7566C7.8701 14.0507 6.712 18.7717 6.712 24.85H7.712C7.712 18.8763 8.8539 14.3973 11.0669 11.3434L10.2571 10.7566ZM6.712 24.85C6.712 30.9283 7.8701 35.6493 10.2571 38.9434L11.0669 38.3566C8.8539 35.3027 7.712 30.8237 7.712 24.85H6.712ZM10.2599 38.9472C12.6991 42.2473 15.9756 43.911 20.046 43.911V42.911C16.2964 42.911 13.3169 41.4007 11.0641 38.3528L10.2599 38.9472ZM75.3145 23.884L74.9987 24.2718L75.0048 24.2766L75.3145 23.884ZM78.1435 42.238L77.7147 41.9807L77.7132 41.9833L78.1435 42.238ZM72.0025 47.62L72.2168 48.0717L72.22 48.0702L72.0025 47.62ZM52.0615 48.034L51.9033 48.5084L51.9096 48.5104L52.0615 48.034ZM44.1955 43.687L43.7634 43.4354L43.5575 43.7889L43.8633 44.0607L44.1955 43.687ZM47.3695 38.236L47.7128 37.8725L47.2545 37.4397L46.9374 37.9844L47.3695 38.236ZM53.7175 42.031L53.5419 42.4992L53.5493 42.5019L53.7175 42.031ZM70.2775 41.134L70.5819 41.5307L70.5832 41.5296L70.2775 41.134ZM70.0015 28.231L69.7182 28.6431L69.7241 28.647L70.0015 28.231ZM47.7145 25.954L47.217 25.9037L47.1614 26.454H47.7145V25.954ZM50.2675 0.699997V0.199997H49.8155L49.77 0.649707L50.2675 0.699997ZM77.5225 0.699997H78.0225V0.199997H77.5225V0.699997ZM77.5225 6.703V7.203H78.0225V6.703H77.5225ZM56.0635 6.703V6.203H55.6105L55.5659 6.65376L56.0635 6.703ZM54.7525 19.951L54.2549 19.9018L54.2005 20.451H54.7525V19.951ZM60.1345 20.451C66.9895 20.451 71.9103 21.7568 74.9987 24.2717L75.6302 23.4963C72.2787 20.7672 67.0794 19.451 60.1345 19.451V20.451ZM75.0048 24.2766C78.1395 26.749 79.7135 30.1404 79.7135 34.51H80.7135C80.7135 29.8636 79.0214 26.171 75.6241 23.4914L75.0048 24.2766ZM79.7135 34.51C79.7135 37.2773 79.0451 39.7634 77.7147 41.9808L78.5722 42.4952C80.0018 40.1126 80.7135 37.4467 80.7135 34.51H79.7135ZM77.7132 41.9833C76.4374 44.139 74.4717 45.8712 71.7849 47.1698L72.22 48.0702C75.0532 46.7008 77.1816 44.845 78.5737 42.4927L77.7132 41.9833ZM71.7881 47.1683C69.1595 48.4158 65.8798 49.052 61.9285 49.052V50.052C65.9811 50.052 69.4175 49.4002 72.2168 48.0717L71.7881 47.1683ZM61.9285 49.052C58.5749 49.052 55.3372 48.5536 52.2133 47.5576L51.9096 48.5104C55.1338 49.5384 58.4741 50.052 61.9285 50.052V49.052ZM52.2196 47.5597C49.0967 46.5187 46.5377 45.1 44.5276 43.3133L43.8633 44.0607C45.9933 45.954 48.6782 47.4333 51.9033 48.5083L52.2196 47.5597ZM44.6275 43.9386L47.8015 38.4876L46.9374 37.9844L43.7634 43.4354L44.6275 43.9386ZM47.0261 38.5995C48.7395 40.2177 50.9162 41.5145 53.5419 42.4992L53.893 41.5628C51.3667 40.6155 49.3114 39.3823 47.7128 37.8725L47.0261 38.5995ZM53.5493 42.5019C56.1815 43.442 58.9526 43.911 61.8595 43.911V42.911C59.0623 42.911 56.4054 42.46 53.8856 41.5601L53.5493 42.5019ZM61.8595 43.911C65.555 43.911 68.4846 43.1402 70.5819 41.5307L69.9731 40.7373C68.1143 42.1638 65.4319 42.911 61.8595 42.911V43.911ZM70.5832 41.5296C72.7357 39.8663 73.8135 37.6011 73.8135 34.786H72.8135C72.8135 37.3069 71.8672 39.2737 69.9717 40.7384L70.5832 41.5296ZM73.8135 34.786C73.8135 31.739 72.6404 29.3894 70.2788 27.815L69.7241 28.647C71.7785 30.0166 72.8135 32.037 72.8135 34.786H73.8135ZM70.2847 27.819C67.9442 26.2099 64.0393 25.454 58.6855 25.454V26.454C64.0036 26.454 67.6427 27.2161 69.7182 28.643L70.2847 27.819ZM58.6855 25.454H47.7145V26.454H58.6855V25.454ZM48.2119 26.0043L50.7649 0.750287L49.77 0.649707L47.217 25.9037L48.2119 26.0043ZM50.2675 1.2H77.5225V0.199997H50.2675V1.2ZM77.0225 0.699997V6.703H78.0225V0.699997H77.0225ZM77.5225 6.203H56.0635V7.203H77.5225V6.203ZM55.5659 6.65376L54.2549 19.9018L55.25 20.0002L56.561 6.75224L55.5659 6.65376ZM54.7525 20.451H60.1345V19.451H54.7525V20.451Z" fill="black"/>
</svg>
