<svg width="84" height="50" viewBox="0 0 84 50" fill="none" xmlns="http://www.w3.org/2000/svg">
<path d="M9.834 46.654L9.55511 47.0691L9.56264 47.074L9.834 46.654ZM2.865 38.098L2.4102 38.3057L2.865 38.098ZM2.865 11.602L2.4102 11.3942L2.865 11.602ZM9.834 3.115L10.1083 3.53303L10.1099 3.53201L9.834 3.115ZM30.12 3.115L29.8411 3.53009L29.8486 3.53496L30.12 3.115ZM37.158 11.602L37.6128 11.3942L37.158 11.602ZM30.12 46.654L30.3943 47.072L30.3959 47.071L30.12 46.654ZM29.292 38.65L28.8899 38.3528L28.8871 38.3566L29.292 38.65ZM29.292 11.05L28.8871 11.3434L28.8899 11.3472L29.292 11.05ZM10.662 11.05L10.2599 10.7528L10.2571 10.7566L10.662 11.05ZM10.662 38.65L10.2571 38.9434L10.2599 38.9472L10.662 38.65ZM20.046 49.052C16.317 49.052 13.0086 48.11 10.1054 46.234L9.56264 47.074C12.6394 49.062 16.139 50.052 20.046 50.052V49.052ZM10.1128 46.239C7.25678 44.3201 4.98948 41.5455 3.3198 37.8903L2.4102 38.3057C4.14453 42.1025 6.52323 45.0319 9.55516 47.069L10.1128 46.239ZM3.3198 37.8903C1.65398 34.2435 0.812 29.9015 0.812 24.85H-0.188C-0.188 30.0105 0.672021 34.5005 2.4102 38.3057L3.3198 37.8903ZM0.812 24.85C0.812 19.7985 1.65398 15.4565 3.3198 11.8097L2.4102 11.3942C0.672021 15.1995 -0.188 19.6895 -0.188 24.85H0.812ZM3.3198 11.8097C4.98916 8.15519 7.25524 5.40536 10.1083 3.53302L9.55967 2.69697C6.52476 4.68864 4.14484 7.59681 2.4102 11.3942L3.3198 11.8097ZM10.1099 3.53201C13.0126 1.61172 16.3194 0.647999 20.046 0.647999V-0.352001C16.1366 -0.352001 12.6354 0.662283 9.55813 2.69799L10.1099 3.53201ZM20.046 0.647999C23.7253 0.647999 26.9849 1.61101 29.8412 3.53002L30.3988 2.69997C27.3671 0.662992 23.9107 -0.352001 20.046 -0.352001V0.647999ZM29.8486 3.53496C32.747 5.40773 35.0347 8.15715 36.7032 11.8097L37.6128 11.3942C35.8773 7.59484 33.473 4.68627 30.3914 2.69504L29.8486 3.53496ZM36.7032 11.8097C38.369 15.4565 39.211 19.7985 39.211 24.85H40.211C40.211 19.6895 39.351 15.1995 37.6128 11.3942L36.7032 11.8097ZM39.211 24.85C39.211 29.9015 38.369 34.2435 36.7032 37.8903L37.6128 38.3057C39.351 34.5005 40.211 30.0105 40.211 24.85H39.211ZM36.7032 37.8903C35.0344 41.5435 32.7454 44.3177 29.8441 46.237L30.3959 47.071C33.4746 45.0343 35.8776 42.1045 37.6128 38.3057L36.7032 37.8903ZM29.8457 46.236C26.989 48.1106 23.7278 49.052 20.046 49.052V50.052C23.9082 50.052 27.363 49.0614 30.3943 47.072L29.8457 46.236ZM20.046 43.911C24.073 43.911 27.3044 42.2449 29.6969 38.9434L28.8871 38.3566C26.6796 41.4031 23.747 42.911 20.046 42.911V43.911ZM29.6941 38.9472C32.1293 35.6525 33.311 30.9299 33.311 24.85H32.311C32.311 30.8221 31.1467 35.2995 28.8899 38.3528L29.6941 38.9472ZM33.311 24.85C33.311 18.7701 32.1293 14.0475 29.6941 10.7528L28.8899 11.3472C31.1467 14.4005 32.311 18.8779 32.311 24.85H33.311ZM29.6969 10.7566C27.3044 7.45505 24.073 5.789 20.046 5.789V6.789C23.747 6.789 26.6796 8.29695 28.8871 11.3434L29.6969 10.7566ZM20.046 5.789C15.9756 5.789 12.6991 7.45268 10.2599 10.7528L11.0641 11.3472C13.3169 8.29932 16.2964 6.789 20.046 6.789V5.789ZM10.2571 10.7566C7.8701 14.0507 6.712 18.7717 6.712 24.85H7.712C7.712 18.8763 8.8539 14.3973 11.0669 11.3434L10.2571 10.7566ZM6.712 24.85C6.712 30.9283 7.8701 35.6493 10.2571 38.9434L11.0669 38.3566C8.8539 35.3027 7.712 30.8237 7.712 24.85H6.712ZM10.2599 38.9472C12.6991 42.2473 15.9756 43.911 20.046 43.911V42.911C16.2964 42.911 13.3169 41.4007 11.0641 38.3528L10.2599 38.9472ZM75.6595 21.469L75.4426 21.9195L75.4458 21.921L75.6595 21.469ZM81.5935 26.644L81.1709 26.9113L81.1734 26.9153L81.5935 26.644ZM81.4555 42.307L81.0381 42.0316L81.0343 42.0375L81.4555 42.307ZM75.3145 47.689L75.5316 48.1394L75.5349 48.1378L75.3145 47.689ZM51.5785 43.273L51.1947 43.5935L51.1968 43.596L51.5785 43.273ZM49.1635 11.74L48.7173 11.5142L48.7162 11.5164L49.1635 11.74ZM57.1675 3.115L57.4143 3.54984L57.4162 3.54876L57.1675 3.115ZM75.7975 0.906998L75.6787 1.39281L75.689 1.39509L75.7975 0.906998ZM81.1795 2.977L81.629 3.19598L81.8288 2.78585L81.4386 2.5494L81.1795 2.977ZM78.5575 8.359L78.282 8.7763L78.7575 9.09009L79.007 8.57798L78.5575 8.359ZM57.5125 10.774L57.8795 11.1136L57.8819 11.1109L57.5125 10.774ZM53.3035 26.023L52.8065 26.0782L52.9581 27.4424L53.7195 26.3004L53.3035 26.023ZM58.9615 21.331L59.1637 21.7883L59.1677 21.7865L58.9615 21.331ZM74.0725 41.41L73.7463 41.031L74.0725 41.41ZM74.0035 27.817L73.6772 28.1961L73.6868 28.204L74.0035 27.817ZM60.2035 26.506L59.9847 26.0564L59.9799 26.0588L60.2035 26.506ZM56.2705 29.887L55.8564 29.6065L55.8503 29.6159L56.2705 29.887ZM56.2015 39.34L55.7752 39.6013L55.7801 39.6094L55.7854 39.6174L56.2015 39.34ZM60.1345 42.721L59.9061 43.1658L59.9132 43.1694L59.9204 43.1729L60.1345 42.721ZM67.1725 20.175C70.2827 20.175 73.0358 20.7607 75.4426 21.9195L75.8764 21.0185C73.3152 19.7853 70.4102 19.175 67.1725 19.175V20.175ZM75.4458 21.921C77.8945 23.0786 79.7982 24.7415 81.1709 26.9113L82.016 26.3767C80.5368 24.0385 78.4844 22.2514 75.8732 21.017L75.4458 21.921ZM81.1734 26.9153C82.5419 29.0342 83.2325 31.491 83.2325 34.303H84.2325C84.2325 31.319 83.497 28.6698 82.0135 26.3727L81.1734 26.9153ZM83.2325 34.303C83.2325 37.2514 82.4968 39.8215 81.0382 42.0316L81.8728 42.5824C83.4501 40.1925 84.2325 37.4266 84.2325 34.303H83.2325ZM81.0343 42.0375C79.615 44.2551 77.6399 45.9896 75.094 47.2402L75.5349 48.1378C78.233 46.8124 80.3519 44.9589 81.8766 42.5765L81.0343 42.0375ZM75.0973 47.2386C72.5971 48.4441 69.7748 49.052 66.6205 49.052V50.052C69.9061 50.052 72.8798 49.4179 75.5316 48.1394L75.0973 47.2386ZM66.6205 49.052C60.2518 49.052 55.3895 47.0029 51.9602 42.95L51.1968 43.596C54.8514 47.9151 60.0171 50.052 66.6205 50.052V49.052ZM51.9622 42.9525C48.5669 38.887 46.8345 33.0831 46.8345 25.471H45.8345C45.8345 33.2229 47.5981 39.287 51.1947 43.5935L51.9622 42.9525ZM46.8345 25.471C46.8345 20.1458 47.7676 15.6497 49.6107 11.9636L48.7162 11.5164C46.7873 15.3743 45.8345 20.0322 45.8345 25.471H46.8345ZM49.6096 11.9658C51.5015 8.22701 54.1038 5.42876 57.4143 3.54984L56.9207 2.68015C53.4231 4.66524 50.6894 7.61699 48.7173 11.5142L49.6096 11.9658ZM57.4162 3.54876C60.78 1.62014 64.6939 0.647999 69.1735 0.647999V-0.352001C64.5451 -0.352001 60.4549 0.65386 56.9188 2.68123L57.4162 3.54876ZM69.1735 0.647999C71.4834 0.647999 73.6513 0.897099 75.6787 1.3927L75.9162 0.421299C73.8036 -0.0951004 71.5555 -0.352001 69.1735 -0.352001V0.647999ZM75.689 1.39509C77.7159 1.8455 79.457 2.51772 80.9203 3.40459L81.4386 2.5494C79.866 1.59627 78.0191 0.888491 75.9059 0.418905L75.689 1.39509ZM80.73 2.75801L78.108 8.14001L79.007 8.57798L81.629 3.19598L80.73 2.75801ZM78.8329 7.94169C76.4244 6.35211 73.2355 5.582 69.3115 5.582V6.582C73.1154 6.582 76.0905 7.32988 78.282 8.7763L78.8329 7.94169ZM69.3115 5.582C64.1851 5.582 60.1073 7.18599 57.143 10.4371L57.8819 11.1109C60.6217 8.106 64.4098 6.582 69.3115 6.582V5.582ZM57.1455 10.4344C54.1782 13.641 52.7345 18.2901 52.7345 24.298H53.7345C53.7345 18.4379 55.1427 14.071 57.8794 11.1136L57.1455 10.4344ZM52.7345 24.298C52.7345 25.0408 52.7575 25.6371 52.8065 26.0782L53.8004 25.9678C53.7574 25.5809 53.7345 25.0272 53.7345 24.298H52.7345ZM53.7195 26.3004C55.044 24.3136 56.8539 22.8099 59.1637 21.7883L58.7592 20.8737C56.285 21.9681 54.3229 23.5924 52.8874 25.7457L53.7195 26.3004ZM59.1677 21.7865C61.5327 20.7155 64.198 20.175 67.1725 20.175V19.175C64.0749 19.175 61.2662 19.7385 58.7552 20.8755L59.1677 21.7865ZM66.3445 44.463C69.6112 44.463 72.3113 43.585 74.3986 41.789L73.7463 41.031C71.8776 42.639 69.4258 43.463 66.3445 43.463V44.463ZM74.3986 41.789C76.498 39.9825 77.5395 37.5614 77.5395 34.579H76.5395C76.5395 37.3006 75.6029 39.4335 73.7463 41.031L74.3986 41.789ZM77.5395 34.579C77.5395 31.5925 76.4716 29.1904 74.3201 27.43L73.6868 28.204C75.5833 29.7556 76.5395 31.8615 76.5395 34.579H77.5395ZM74.3296 27.438C72.2374 25.6377 69.442 24.764 65.9995 24.764V25.764C69.2729 25.764 71.8136 26.5923 73.6773 28.196L74.3296 27.438ZM65.9995 24.764C63.7725 24.764 61.764 25.1908 59.9847 26.0564L60.4222 26.9556C62.0469 26.1652 63.9024 25.764 65.9995 25.764V24.764ZM59.9799 26.0588C58.2531 26.9222 56.8742 28.1043 55.8565 29.6066L56.6844 30.1674C57.5987 28.8177 58.8418 27.7458 60.4271 26.9532L59.9799 26.0588ZM55.8503 29.6159C54.8766 31.1253 54.3905 32.8069 54.3905 34.648H55.3905C55.3905 32.9931 55.8244 31.5007 56.6906 30.1581L55.8503 29.6159ZM54.3905 34.648C54.3905 36.4405 54.8521 38.0952 55.7752 39.6013L56.6278 39.0787C55.8028 37.7328 55.3905 36.2595 55.3905 34.648H54.3905ZM55.7854 39.6174C56.7595 41.0785 58.14 42.2589 59.9061 43.1658L60.3629 42.2762C58.7249 41.4351 57.4834 40.3615 56.6175 39.0626L55.7854 39.6174ZM59.9204 43.1729C61.7492 44.0392 63.8955 44.463 66.3445 44.463V43.463C64.0094 43.463 62.0157 43.0588 60.3485 42.2691L59.9204 43.1729Z" fill="black"/>
</svg>
