<?xml version="1.0" standalone="no"?>
<!DOCTYPE svg PUBLIC "-//W3C//DTD SVG 20010904//EN"
 "http://www.w3.org/TR/2001/REC-SVG-20010904/DTD/svg10.dtd">
<svg version="1.0" xmlns="http://www.w3.org/2000/svg"
 width="512.000000pt" height="512.000000pt" viewBox="0 0 512.000000 512.000000"
 preserveAspectRatio="xMidYMid meet">
<metadata>
Created by potrace 1.16, written by Peter Selinger 2001-2019
</metadata>
<g transform="translate(0.000000,512.000000) scale(0.100000,-0.100000)"
fill="#000000" stroke="none">
<path d="M2785 5021 c-161 -46 -315 -169 -387 -306 -38 -75 -78 -215 -78 -277
l0 -38 -472 0 c-528 0 -547 -2 -671 -67 -178 -94 -297 -291 -297 -493 0 -202
119 -399 297 -493 124 -65 144 -67 661 -67 499 0 549 -4 675 -55 127 -52 255
-160 332 -279 76 -120 103 -213 116 -410 5 -78 17 -177 28 -221 77 -317 313
-592 613 -714 152 -62 216 -73 463 -80 196 -5 224 -8 255 -26 38 -22 80 -93
80 -135 0 -49 -42 -113 -90 -137 l-44 -23 -609 0 c-693 0 -698 0 -857 -77 -80
-39 -108 -59 -186 -137 -78 -78 -98 -106 -137 -186 -67 -138 -77 -203 -77
-485 l0 -235 79 0 79 0 4 253 c4 225 7 259 26 318 54 164 195 306 361 361 65
22 79 23 721 28 l655 5 50 24 c63 32 124 93 156 156 20 41 24 65 24 135 0 101
-23 159 -93 228 -78 79 -105 85 -367 93 -267 8 -333 21 -482 94 -227 112 -386
303 -458 551 -18 62 -28 129 -35 238 -14 221 -54 347 -160 500 -115 166 -282
285 -492 348 -70 21 -95 22 -593 28 -512 5 -521 6 -578 28 -268 108 -341 449
-137 652 55 56 123 93 198 109 35 7 211 11 517 11 l463 0 12 -37 c48 -151 176
-300 317 -370 115 -58 205 -76 351 -71 106 3 123 6 184 35 93 44 151 100 196
191 35 73 37 81 37 177 0 93 -2 105 -33 167 -80 162 -274 261 -432 218 -59
-16 -143 -98 -159 -155 -27 -97 -7 -171 63 -241 57 -58 98 -74 189 -74 l57 0
0 80 0 80 -45 0 c-58 0 -91 16 -106 51 -22 54 21 109 85 109 46 0 116 -32 156
-72 92 -92 89 -251 -7 -339 -51 -48 -92 -62 -188 -67 -165 -7 -285 37 -392
144 -75 74 -117 156 -135 262 -32 187 63 384 233 484 117 69 113 69 954 66
745 -3 750 -3 816 -25 169 -58 310 -201 362 -368 30 -97 30 -233 0 -330 -53
-168 -194 -312 -362 -367 -62 -20 -91 -22 -441 -27 -372 -6 -375 -6 -425 -30
-96 -48 -168 -144 -181 -244 l-7 -47 87 0 c84 0 86 1 86 24 0 33 39 86 80 110
33 20 55 21 410 27 322 5 383 8 430 23 241 78 430 275 490 512 27 105 27 263
0 368 -63 248 -268 453 -516 516 -74 19 -113 20 -868 19 -719 0 -796 -2 -851
-18z"/>
<path d="M1225 4699 c-247 -60 -467 -240 -580 -472 -68 -141 -88 -242 -82
-407 4 -94 12 -157 26 -208 89 -307 310 -530 623 -624 70 -21 96 -22 593 -28
322 -4 532 -10 550 -17 149 -52 248 -167 277 -323 l12 -60 78 0 78 0 0 33 c0
58 -30 159 -67 230 -48 91 -139 182 -230 230 -123 64 -144 67 -653 67 -466 0
-534 4 -644 41 -279 93 -486 382 -486 679 0 283 185 558 445 664 120 49 189
56 525 56 l310 0 0 80 0 80 -347 -1 c-310 0 -357 -3 -428 -20z"/>
<path d="M3600 4640 l0 -79 393 -3 c380 -3 393 -4 432 -25 86 -46 129 -118
129 -213 0 -95 -43 -167 -129 -213 -37 -20 -57 -22 -272 -25 l-233 -3 0 -80 0
-79 230 0 c262 0 316 10 406 79 218 164 217 477 -1 643 -97 74 -126 78 -566
78 l-389 0 0 -80z"/>
<path d="M1358 4066 c-120 -43 -183 -171 -147 -301 15 -54 100 -139 154 -154
22 -6 102 -11 178 -11 l137 0 0 80 0 80 -125 0 c-138 0 -168 8 -186 51 -15 37
2 82 37 98 17 7 140 11 389 11 l365 0 0 80 0 80 -382 0 c-289 -1 -392 -4 -420
-14z"/>
<path d="M80 3768 c0 -205 93 -489 223 -683 172 -256 416 -442 710 -540 165
-55 253 -65 587 -65 340 0 449 -9 551 -46 153 -54 298 -172 382 -310 48 -81
89 -204 95 -291 l5 -73 85 0 85 0 -7 78 c-25 309 -227 594 -511 723 -152 69
-171 71 -610 79 -432 9 -464 12 -634 71 -213 74 -416 221 -551 400 -144 191
-217 379 -242 620 l-12 109 -78 0 -78 0 0 -72z"/>
<path d="M3120 3360 l0 -240 80 0 80 0 0 240 0 240 -80 0 -80 0 0 -240z"/>
<path d="M3814 3260 c-75 -19 -187 -72 -241 -113 -18 -13 -64 -59 -104 -103
-208 -232 -246 -548 -101 -829 50 -96 191 -237 287 -287 137 -71 184 -80 445
-88 263 -8 298 -15 396 -78 115 -75 193 -193 216 -329 39 -235 -118 -474 -351
-535 -59 -15 -133 -17 -682 -17 -586 -1 -620 -2 -680 -21 -119 -37 -222 -140
-259 -259 -49 -155 -6 -308 120 -425 72 -68 126 -88 243 -94 l97 -4 0 79 0 80
-66 7 c-82 8 -129 27 -173 69 -92 87 -96 234 -8 325 18 19 50 43 72 55 40 22
48 22 700 28 500 4 670 8 700 18 213 69 385 249 440 461 23 89 17 281 -11 361
-67 188 -239 353 -434 414 -42 14 -111 19 -290 25 -199 6 -245 10 -301 28
-166 54 -309 199 -362 367 -30 97 -30 233 0 330 53 170 197 314 368 368 66 21
87 22 395 22 287 0 331 -2 376 -18 165 -57 266 -199 268 -372 2 -227 -154
-387 -391 -402 l-83 -6 0 -78 0 -79 73 0 c209 1 410 116 500 289 19 36 42 90
51 120 21 72 21 230 0 302 -43 145 -148 277 -272 342 -125 65 -138 67 -521 66
-305 0 -355 -2 -417 -19z"/>
<path d="M4035 2940 c-115 -37 -219 -142 -255 -259 -82 -262 112 -521 391
-521 l69 0 0 79 0 78 -72 5 c-151 10 -242 100 -242 238 0 96 44 168 129 213
32 17 63 22 153 25 129 5 164 -5 182 -49 16 -37 -1 -82 -36 -98 -14 -6 -78
-11 -149 -11 l-125 0 0 -81 0 -81 158 4 c172 4 191 9 251 70 45 45 62 81 68
142 8 80 -11 133 -71 192 -65 65 -96 74 -261 73 -100 0 -144 -5 -190 -19z"/>
<path d="M1320 2300 c-222 -58 -415 -213 -515 -415 -63 -126 -85 -221 -85
-365 0 -146 22 -240 87 -370 40 -80 63 -110 143 -191 106 -108 191 -161 325
-206 73 -24 100 -27 310 -34 127 -4 247 -12 267 -18 87 -27 182 -122 209 -209
6 -20 13 -121 16 -224 l5 -188 79 0 79 0 0 188 c0 204 -9 261 -56 354 -32 63
-114 151 -171 185 -104 61 -131 66 -378 73 -210 7 -237 9 -310 33 -222 73
-382 252 -429 480 -20 96 -20 158 0 254 52 252 246 446 496 497 107 22 538 23
621 1 162 -42 268 -157 299 -324 37 -200 -105 -406 -310 -450 -149 -31 -258
-3 -299 79 -13 24 -23 56 -23 70 0 14 10 46 23 70 33 67 85 90 204 90 l93 0 0
81 0 81 -122 -4 c-142 -4 -192 -22 -263 -93 -67 -66 -90 -125 -90 -225 0 -70
4 -94 24 -135 32 -63 93 -124 156 -155 66 -32 234 -40 339 -16 155 36 296 145
368 282 166 315 19 687 -315 799 -74 25 -80 25 -389 24 -276 0 -322 -2 -388
-19z"/>
</g>
</svg>
